<mxfile host="app.diagrams.net" modified="2023-09-07T02:30:39.322Z" agent="Mozilla/5.0 (Windows NT 10.0; Win64; x64) AppleWebKit/537.36 (KHTML, like Gecko) Chrome/116.0.0.0 Safari/537.36" etag="FB9Bcx-VjNadAKykXlek" version="21.7.2" type="github">
  <diagram id="6a731a19-8d31-9384-78a2-239565b7b9f0" name="Page-1">
    <mxGraphModel dx="5713" dy="3187" grid="1" gridSize="10" guides="1" tooltips="1" connect="1" arrows="0" fold="1" page="1" pageScale="1" pageWidth="1169" pageHeight="827" background="none" math="0" shadow="0">
      <root>
        <mxCell id="0" />
        <mxCell id="1" parent="0" />
        <mxCell id="1350" value="&lt;font style=&quot;vertical-align: inherit;&quot;&gt;&lt;font style=&quot;vertical-align: inherit;&quot;&gt;RED&lt;/font&gt;&lt;/font&gt;" style="ellipse;whiteSpace=wrap;html=1;shadow=0;fontFamily=Helvetica;fontSize=20;fontColor=#FFFFFF;align=center;strokeWidth=3;fillColor=#1699D3;strokeColor=none;" parent="1" vertex="1">
          <mxGeometry x="582" y="393" width="120" height="120" as="geometry" />
        </mxCell>
        <mxCell id="1351" value="&lt;font style=&quot;vertical-align: inherit;&quot;&gt;&lt;font style=&quot;vertical-align: inherit;&quot;&gt;CONCEPTO&lt;/font&gt;&lt;/font&gt;" style="ellipse;whiteSpace=wrap;html=1;shadow=0;fontFamily=Helvetica;fontSize=20;fontColor=#FFFFFF;align=center;strokeWidth=3;fillColor=#F08705;strokeColor=none;gradientColor=none;" parent="1" vertex="1">
          <mxGeometry x="1093.5" y="353" width="120" height="120" as="geometry" />
        </mxCell>
        <mxCell id="1353" value="&lt;font style=&quot;vertical-align: inherit;&quot;&gt;&lt;font style=&quot;vertical-align: inherit;&quot;&gt;CAPAZ&lt;/font&gt;&lt;/font&gt;" style="ellipse;whiteSpace=wrap;html=1;shadow=0;fontFamily=Helvetica;fontSize=20;fontColor=#FFFFFF;align=center;strokeWidth=3;fillColor=#1699D3;strokeColor=none;" parent="1" vertex="1">
          <mxGeometry x="1606" y="690" width="120" height="120" as="geometry" />
        </mxCell>
        <mxCell id="1354" value="MODELO TCP / IP" style="ellipse;whiteSpace=wrap;html=1;shadow=0;fontFamily=Helvetica;fontSize=20;fontColor=#FFFFFF;align=center;strokeWidth=3;fillColor=#736ca8;strokeColor=none;" parent="1" vertex="1">
          <mxGeometry x="1253.5" y="1275" width="120" height="120" as="geometry" />
        </mxCell>
        <mxCell id="1355" value="PROTOCOLOS" style="ellipse;whiteSpace=wrap;html=1;shadow=0;fontFamily=Helvetica;fontSize=20;fontColor=#FFFFFF;align=center;strokeWidth=3;fillColor=#F08705;strokeColor=none;" parent="1" vertex="1">
          <mxGeometry x="750" y="1171.5" width="140" height="131.5" as="geometry" />
        </mxCell>
        <mxCell id="1357" value="&lt;font style=&quot;vertical-align: inherit;&quot;&gt;&lt;font style=&quot;vertical-align: inherit;&quot;&gt;interoperabilidad&lt;/font&gt;&lt;/font&gt;" style="rounded=1;fillColor=#f5af58;strokeColor=none;strokeWidth=3;shadow=0;html=1;fontColor=#FFFFFF;" parent="1" vertex="1">
          <mxGeometry x="1320" y="451.5" width="120" height="40" as="geometry" />
        </mxCell>
        <mxCell id="1358" value="&lt;font style=&quot;vertical-align: inherit;&quot;&gt;&lt;font style=&quot;vertical-align: inherit;&quot;&gt;&lt;font style=&quot;vertical-align: inherit;&quot;&gt;&lt;font style=&quot;vertical-align: inherit;&quot;&gt;TRASMITEN &lt;/font&gt;&lt;/font&gt;&lt;br&gt;&lt;font style=&quot;vertical-align: inherit;&quot;&gt;&lt;font style=&quot;vertical-align: inherit;&quot;&gt;O &lt;/font&gt;&lt;/font&gt;&lt;br&gt;&lt;font style=&quot;vertical-align: inherit;&quot;&gt;&lt;font style=&quot;vertical-align: inherit;&quot;&gt;&amp;nbsp;INTERCALAN&lt;/font&gt;&lt;/font&gt;&lt;/font&gt;&lt;/font&gt;" style="rounded=1;fillColor=#64BBE2;strokeColor=none;strokeWidth=3;shadow=0;html=1;fontColor=#FFFFFF;" parent="1" vertex="1">
          <mxGeometry x="374.5" y="421.5" width="130" height="90" as="geometry" />
        </mxCell>
        <mxCell id="1359" style="endArrow=none;strokeWidth=6;strokeColor=#1699D3;html=1;" parent="1" source="1515" target="1350" edge="1">
          <mxGeometry relative="1" as="geometry" />
        </mxCell>
        <mxCell id="1360" style="endArrow=none;strokeWidth=6;strokeColor=#f08705;html=1;" parent="1" source="1515" target="1351" edge="1">
          <mxGeometry relative="1" as="geometry" />
        </mxCell>
        <mxCell id="1362" style="endArrow=none;strokeWidth=6;strokeColor=#1699D3;html=1;" parent="1" source="1515" target="1353" edge="1">
          <mxGeometry relative="1" as="geometry" />
        </mxCell>
        <mxCell id="1364" style="endArrow=none;strokeWidth=6;strokeColor=#736ca8;html=1;" parent="1" source="1515" target="1354" edge="1">
          <mxGeometry relative="1" as="geometry">
            <Array as="points" />
          </mxGeometry>
        </mxCell>
        <mxCell id="1365" value="" style="edgeStyle=none;endArrow=none;strokeWidth=6;strokeColor=#F08705;html=1;exitX=0;exitY=1;exitDx=0;exitDy=0;" parent="1" source="1515" target="1355" edge="1">
          <mxGeometry x="181" y="226.5" width="100" height="100" as="geometry">
            <mxPoint x="970" y="1075.75" as="sourcePoint" />
            <mxPoint x="-419" y="44.28999999999999" as="targetPoint" />
          </mxGeometry>
        </mxCell>
        <mxCell id="1367" value="&lt;font style=&quot;vertical-align: inherit;&quot;&gt;&lt;font style=&quot;vertical-align: inherit;&quot;&gt;RECURSOS&lt;/font&gt;&lt;/font&gt;" style="rounded=1;fillColor=#64BBE2;strokeColor=none;strokeWidth=3;shadow=0;html=1;fontColor=#FFFFFF;" parent="1" vertex="1">
          <mxGeometry x="142" y="493" width="130" height="40" as="geometry" />
        </mxCell>
        <mxCell id="1368" value="Elephant" style="rounded=1;fillColor=#64BBE2;strokeColor=none;strokeWidth=3;shadow=0;html=1;fontColor=#FFFFFF;" parent="1" vertex="1">
          <mxGeometry x="272" y="303" width="130" height="40" as="geometry" />
        </mxCell>
        <mxCell id="1369" value="&lt;font style=&quot;vertical-align: inherit;&quot;&gt;&lt;font style=&quot;vertical-align: inherit;&quot;&gt;ONNDAS &lt;br&gt;ELECTROMACNETICAS&lt;/font&gt;&lt;/font&gt;" style="rounded=1;fillColor=#64BBE2;strokeColor=none;strokeWidth=3;shadow=0;html=1;fontColor=#FFFFFF;" parent="1" vertex="1">
          <mxGeometry x="192" y="193" width="151.5" height="60" as="geometry" />
        </mxCell>
        <mxCell id="1370" value="&lt;font style=&quot;vertical-align: inherit;&quot;&gt;&lt;font style=&quot;vertical-align: inherit;&quot;&gt;CABLES&lt;/font&gt;&lt;/font&gt;" style="rounded=1;fillColor=#64BBE2;strokeColor=none;strokeWidth=3;shadow=0;html=1;fontColor=#FFFFFF;" parent="1" vertex="1">
          <mxGeometry x="328.5" y="131.5" width="130" height="40" as="geometry" />
        </mxCell>
        <mxCell id="1371" value="&lt;font style=&quot;vertical-align: inherit;&quot;&gt;&lt;font style=&quot;vertical-align: inherit;&quot;&gt;&lt;font style=&quot;vertical-align: inherit;&quot;&gt;&lt;font style=&quot;vertical-align: inherit;&quot;&gt;CONJUNTO DE EQUIPOS QUE ESTAN &lt;br&gt;CONECTADOS ENTRE SI&lt;/font&gt;&lt;/font&gt;&lt;/font&gt;&lt;/font&gt;" style="rounded=1;fillColor=#64BBE2;strokeColor=none;strokeWidth=3;shadow=0;html=1;fontColor=#FFFFFF;" parent="1" vertex="1">
          <mxGeometry x="518.5" y="203" width="220" height="70" as="geometry" />
        </mxCell>
        <mxCell id="1375" value="&lt;font style=&quot;vertical-align: inherit;&quot;&gt;&lt;font style=&quot;vertical-align: inherit;&quot;&gt;&lt;font style=&quot;vertical-align: inherit;&quot;&gt;&lt;font style=&quot;vertical-align: inherit;&quot;&gt;&lt;font style=&quot;vertical-align: inherit;&quot;&gt;&lt;font style=&quot;vertical-align: inherit;&quot;&gt;IMFORMACIÃ“N / DATOS&lt;/font&gt;&lt;/font&gt;&lt;/font&gt;&lt;/font&gt;&lt;/font&gt;&lt;/font&gt;" style="rounded=1;fillColor=#64BBE2;strokeColor=none;strokeWidth=3;shadow=0;html=1;fontColor=#FFFFFF;" parent="1" vertex="1">
          <mxGeometry x="130" y="373" width="160" height="40" as="geometry" />
        </mxCell>
        <mxCell id="1378" value="" style="edgeStyle=none;endArrow=none;strokeWidth=3;strokeColor=#64BBE2;html=1;" parent="1" source="1358" target="1367" edge="1">
          <mxGeometry x="-221.5" y="56.5" width="100" height="100" as="geometry">
            <mxPoint x="370" y="481.5" as="sourcePoint" />
            <mxPoint x="-131.5" y="178" as="targetPoint" />
          </mxGeometry>
        </mxCell>
        <mxCell id="1379" value="" style="edgeStyle=none;endArrow=none;strokeWidth=3;strokeColor=#64BBE2;html=1;" parent="1" source="1350" target="1358" edge="1">
          <mxGeometry x="-221.5" y="56.5" width="100" height="100" as="geometry">
            <mxPoint x="-231.5" y="278" as="sourcePoint" />
            <mxPoint x="-131.5" y="178" as="targetPoint" />
          </mxGeometry>
        </mxCell>
        <mxCell id="1380" value="" style="edgeStyle=none;endArrow=none;strokeWidth=3;strokeColor=#64BBE2;html=1;exitX=0;exitY=1;exitDx=0;exitDy=0;" parent="1" source="1371" target="1368" edge="1">
          <mxGeometry x="-221.5" y="56.5" width="100" height="100" as="geometry">
            <mxPoint x="-231.5" y="278" as="sourcePoint" />
            <mxPoint x="-131.5" y="178" as="targetPoint" />
          </mxGeometry>
        </mxCell>
        <mxCell id="1381" value="" style="edgeStyle=none;endArrow=none;strokeWidth=3;strokeColor=#64BBE2;html=1;exitX=0;exitY=0.75;exitDx=0;exitDy=0;" parent="1" source="1371" target="1369" edge="1">
          <mxGeometry x="-221.5" y="56.5" width="100" height="100" as="geometry">
            <mxPoint x="-231.5" y="278" as="sourcePoint" />
            <mxPoint x="-131.5" y="178" as="targetPoint" />
          </mxGeometry>
        </mxCell>
        <mxCell id="1382" value="" style="edgeStyle=none;endArrow=none;strokeWidth=3;strokeColor=#64BBE2;html=1;exitX=0;exitY=0.5;exitDx=0;exitDy=0;" parent="1" source="1371" target="1370" edge="1">
          <mxGeometry x="-221.5" y="56.5" width="100" height="100" as="geometry">
            <mxPoint x="-231.5" y="278" as="sourcePoint" />
            <mxPoint x="-131.5" y="178" as="targetPoint" />
          </mxGeometry>
        </mxCell>
        <mxCell id="1383" value="" style="edgeStyle=none;endArrow=none;strokeWidth=3;strokeColor=#64BBE2;html=1;" parent="1" source="1350" target="1371" edge="1">
          <mxGeometry x="-221.5" y="56.5" width="100" height="100" as="geometry">
            <mxPoint x="-231.5" y="278" as="sourcePoint" />
            <mxPoint x="-131.5" y="178" as="targetPoint" />
          </mxGeometry>
        </mxCell>
        <mxCell id="1387" value="" style="edgeStyle=none;endArrow=none;strokeWidth=3;strokeColor=#64BBE2;html=1;exitX=0;exitY=0.25;exitDx=0;exitDy=0;" parent="1" source="1358" target="1375" edge="1">
          <mxGeometry x="-221.5" y="56.5" width="100" height="100" as="geometry">
            <mxPoint x="-231.5" y="278" as="sourcePoint" />
            <mxPoint x="-131.5" y="178" as="targetPoint" />
          </mxGeometry>
        </mxCell>
        <mxCell id="1388" value="&lt;font style=&quot;vertical-align: inherit;&quot;&gt;&lt;font style=&quot;vertical-align: inherit;&quot;&gt;&lt;font style=&quot;vertical-align: inherit;&quot;&gt;&lt;font style=&quot;vertical-align: inherit;&quot;&gt;&lt;font style=&quot;vertical-align: inherit;&quot;&gt;&lt;font style=&quot;vertical-align: inherit;&quot;&gt;SIRVE COMO MODELO &lt;/font&gt;&lt;/font&gt;&lt;br&gt;&lt;font style=&quot;vertical-align: inherit;&quot;&gt;&lt;font style=&quot;vertical-align: inherit;&quot;&gt;PARA &lt;/font&gt;&lt;/font&gt;&lt;/font&gt;&lt;/font&gt;&lt;br&gt;&lt;font style=&quot;vertical-align: inherit;&quot;&gt;&lt;font style=&quot;vertical-align: inherit;&quot;&gt;&lt;font style=&quot;vertical-align: inherit;&quot;&gt;&lt;font style=&quot;vertical-align: inherit;&quot;&gt;QUE SUS EQUIPOS SE&lt;br&gt;&amp;nbsp;COMUNIQUEN ENTRE SI&lt;/font&gt;&lt;/font&gt;&lt;/font&gt;&lt;/font&gt;&lt;/font&gt;&lt;/font&gt;" style="rounded=1;fillColor=#f5af58;strokeColor=none;strokeWidth=3;shadow=0;html=1;fontColor=#FFFFFF;" parent="1" vertex="1">
          <mxGeometry x="810" y="276.5" width="236.5" height="70" as="geometry" />
        </mxCell>
        <mxCell id="1389" value="&lt;font style=&quot;vertical-align: inherit;&quot;&gt;&lt;font style=&quot;vertical-align: inherit;&quot;&gt;hardware&lt;/font&gt;&lt;/font&gt;" style="rounded=1;fillColor=#f5af58;strokeColor=none;strokeWidth=3;shadow=0;html=1;fontColor=#FFFFFF;" parent="1" vertex="1">
          <mxGeometry x="1348.5" y="41.5" width="120" height="40" as="geometry" />
        </mxCell>
        <mxCell id="1390" value="&lt;font style=&quot;vertical-align: inherit;&quot;&gt;&lt;font style=&quot;vertical-align: inherit;&quot;&gt;&lt;font style=&quot;vertical-align: inherit;&quot;&gt;&lt;font style=&quot;vertical-align: inherit;&quot;&gt;ISO &lt;/font&gt;&lt;/font&gt;&lt;br&gt;&lt;font style=&quot;vertical-align: inherit;&quot;&gt;&lt;font style=&quot;vertical-align: inherit;&quot;&gt;ORGANIZACIÃ“N INTERNACIONAL&lt;br&gt;&amp;nbsp;DE ESTANDARIZACIÃ“N&lt;/font&gt;&lt;/font&gt;&lt;br&gt;&lt;/font&gt;&lt;/font&gt;" style="rounded=1;fillColor=#f5af58;strokeColor=none;strokeWidth=3;shadow=0;html=1;fontColor=#FFFFFF;" parent="1" vertex="1">
          <mxGeometry x="1030" y="70" width="240" height="81.5" as="geometry" />
        </mxCell>
        <mxCell id="1393" value="&lt;font style=&quot;vertical-align: inherit;&quot;&gt;&lt;font style=&quot;vertical-align: inherit;&quot;&gt;CEADA POR:&lt;/font&gt;&lt;/font&gt;" style="rounded=1;fillColor=#f5af58;strokeColor=none;strokeWidth=3;shadow=0;html=1;fontColor=#FFFFFF;" parent="1" vertex="1">
          <mxGeometry x="1060.25" y="206.5" width="178.25" height="43.5" as="geometry" />
        </mxCell>
        <mxCell id="1395" value="&lt;font style=&quot;vertical-align: inherit;&quot;&gt;&lt;font style=&quot;vertical-align: inherit;&quot;&gt;&lt;font style=&quot;vertical-align: inherit;&quot;&gt;&lt;font style=&quot;vertical-align: inherit;&quot;&gt;&lt;font style=&quot;vertical-align: inherit;&quot;&gt;&lt;font style=&quot;vertical-align: inherit;&quot;&gt;SOLUCIÃ“N &lt;/font&gt;&lt;/font&gt;&lt;/font&gt;&lt;/font&gt;&lt;br&gt;&lt;font style=&quot;vertical-align: inherit;&quot;&gt;&lt;font style=&quot;vertical-align: inherit;&quot;&gt;&lt;font style=&quot;vertical-align: inherit;&quot;&gt;&lt;font style=&quot;vertical-align: inherit;&quot;&gt;DE PROBLEMAS DE:&lt;/font&gt;&lt;/font&gt;&lt;/font&gt;&lt;/font&gt;&lt;/font&gt;&lt;/font&gt;" style="rounded=1;fillColor=#f5af58;strokeColor=none;strokeWidth=3;shadow=0;html=1;fontColor=#FFFFFF;" parent="1" vertex="1">
          <mxGeometry x="1309.5" y="171.5" width="130.5" height="40" as="geometry" />
        </mxCell>
        <mxCell id="1396" value="&lt;font style=&quot;vertical-align: inherit;&quot;&gt;&lt;font style=&quot;vertical-align: inherit;&quot;&gt;compatibilidad&lt;/font&gt;&lt;/font&gt;" style="rounded=1;fillColor=#f5af58;strokeColor=none;strokeWidth=3;shadow=0;html=1;fontColor=#FFFFFF;" parent="1" vertex="1">
          <mxGeometry x="1340" y="306.5" width="120" height="40" as="geometry" />
        </mxCell>
        <mxCell id="1397" value="&lt;font style=&quot;vertical-align: inherit;&quot;&gt;&lt;font style=&quot;vertical-align: inherit;&quot;&gt;software&lt;/font&gt;&lt;/font&gt;" style="rounded=1;fillColor=#f5af58;strokeColor=none;strokeWidth=3;shadow=0;html=1;fontColor=#FFFFFF;" parent="1" vertex="1">
          <mxGeometry x="1511" y="131.5" width="120" height="40" as="geometry" />
        </mxCell>
        <mxCell id="1398" value="&lt;font style=&quot;vertical-align: inherit;&quot;&gt;&lt;font style=&quot;vertical-align: inherit;&quot;&gt;GRARANTIZA&lt;/font&gt;&lt;/font&gt;" style="rounded=1;fillColor=#f5af58;strokeColor=none;strokeWidth=3;shadow=0;html=1;fontColor=#FFFFFF;" parent="1" vertex="1">
          <mxGeometry x="1253.5" y="380" width="120" height="40" as="geometry" />
        </mxCell>
        <mxCell id="1399" value="" style="edgeStyle=none;endArrow=none;strokeWidth=3;strokeColor=#F5AF58;html=1;exitX=0.5;exitY=1;exitDx=0;exitDy=0;" parent="1" source="1398" target="1357" edge="1">
          <mxGeometry x="3.5" y="21.5" width="100" height="100" as="geometry">
            <mxPoint x="1340" y="430" as="sourcePoint" />
            <mxPoint x="103.5" y="21.5" as="targetPoint" />
          </mxGeometry>
        </mxCell>
        <mxCell id="1400" value="" style="edgeStyle=none;endArrow=none;strokeWidth=3;strokeColor=#F5AF58;html=1;" parent="1" source="1351" target="1388" edge="1">
          <mxGeometry x="3.5" y="21.5" width="100" height="100" as="geometry">
            <mxPoint x="3.5" y="121.5" as="sourcePoint" />
            <mxPoint x="103.5" y="21.5" as="targetPoint" />
          </mxGeometry>
        </mxCell>
        <mxCell id="1401" value="" style="edgeStyle=none;endArrow=none;strokeWidth=3;strokeColor=#F5AF58;html=1;exitX=0.5;exitY=0;exitDx=0;exitDy=0;" parent="1" source="1395" target="1389" edge="1">
          <mxGeometry x="3.5" y="21.5" width="100" height="100" as="geometry">
            <mxPoint x="3.5" y="121.5" as="sourcePoint" />
            <mxPoint x="103.5" y="21.5" as="targetPoint" />
          </mxGeometry>
        </mxCell>
        <mxCell id="1402" value="" style="edgeStyle=none;endArrow=none;strokeWidth=3;strokeColor=#F5AF58;html=1;exitX=0.5;exitY=0;exitDx=0;exitDy=0;" parent="1" source="1393" target="1390" edge="1">
          <mxGeometry x="3.5" y="21.5" width="100" height="100" as="geometry">
            <mxPoint x="3.5" y="121.5" as="sourcePoint" />
            <mxPoint x="103.5" y="21.5" as="targetPoint" />
          </mxGeometry>
        </mxCell>
        <mxCell id="1405" value="" style="edgeStyle=none;endArrow=none;strokeWidth=3;strokeColor=#F5AF58;html=1;" parent="1" source="1351" target="1393" edge="1">
          <mxGeometry x="3.5" y="21.5" width="100" height="100" as="geometry">
            <mxPoint x="3.5" y="121.5" as="sourcePoint" />
            <mxPoint x="103.5" y="21.5" as="targetPoint" />
          </mxGeometry>
        </mxCell>
        <mxCell id="1407" value="" style="edgeStyle=none;endArrow=none;strokeWidth=3;strokeColor=#F5AF58;html=1;" parent="1" source="1351" target="1395" edge="1">
          <mxGeometry x="3.5" y="21.5" width="100" height="100" as="geometry">
            <mxPoint x="3.5" y="121.5" as="sourcePoint" />
            <mxPoint x="103.5" y="21.5" as="targetPoint" />
          </mxGeometry>
        </mxCell>
        <mxCell id="1408" value="" style="edgeStyle=none;endArrow=none;strokeWidth=3;strokeColor=#F5AF58;html=1;exitX=0.5;exitY=0;exitDx=0;exitDy=0;" parent="1" source="1398" target="1396" edge="1">
          <mxGeometry x="3.5" y="21.5" width="100" height="100" as="geometry">
            <mxPoint x="3.5" y="121.5" as="sourcePoint" />
            <mxPoint x="103.5" y="21.5" as="targetPoint" />
          </mxGeometry>
        </mxCell>
        <mxCell id="1409" value="" style="edgeStyle=none;endArrow=none;strokeWidth=3;strokeColor=#F5AF58;html=1;exitX=1;exitY=0.5;exitDx=0;exitDy=0;" parent="1" source="1395" target="1397" edge="1">
          <mxGeometry x="3.5" y="21.5" width="100" height="100" as="geometry">
            <mxPoint x="3.5" y="121.5" as="sourcePoint" />
            <mxPoint x="103.5" y="21.5" as="targetPoint" />
          </mxGeometry>
        </mxCell>
        <mxCell id="1410" value="" style="edgeStyle=none;endArrow=none;strokeWidth=3;strokeColor=#F5AF58;html=1;" parent="1" source="1351" target="1398" edge="1">
          <mxGeometry x="3.5" y="21.5" width="100" height="100" as="geometry">
            <mxPoint x="3.5" y="121.5" as="sourcePoint" />
            <mxPoint x="103.5" y="21.5" as="targetPoint" />
          </mxGeometry>
        </mxCell>
        <mxCell id="1436" value="&lt;font style=&quot;vertical-align: inherit;&quot;&gt;&lt;font style=&quot;vertical-align: inherit;&quot;&gt;APLICACIÃ“N&lt;/font&gt;&lt;/font&gt;" style="rounded=1;fillColor=#64BBE2;strokeColor=none;strokeWidth=3;shadow=0;html=1;fontColor=#FFFFFF;" parent="1" vertex="1">
          <mxGeometry x="1500" y="340" width="120" height="40" as="geometry" />
        </mxCell>
        <mxCell id="1437" value="&lt;font style=&quot;vertical-align: inherit;&quot;&gt;&lt;font style=&quot;vertical-align: inherit;&quot;&gt;PRESENTACIÃ“N&lt;/font&gt;&lt;/font&gt;" style="rounded=1;fillColor=#64BBE2;strokeColor=none;strokeWidth=3;shadow=0;html=1;fontColor=#FFFFFF;" parent="1" vertex="1">
          <mxGeometry x="1634" y="451.5" width="120" height="40" as="geometry" />
        </mxCell>
        <mxCell id="1438" value="&lt;font style=&quot;vertical-align: inherit;&quot;&gt;&lt;font style=&quot;vertical-align: inherit;&quot;&gt;SESIÃ“N&lt;/font&gt;&lt;/font&gt;" style="rounded=1;fillColor=#64BBE2;strokeColor=none;strokeWidth=3;shadow=0;html=1;fontColor=#FFFFFF;" parent="1" vertex="1">
          <mxGeometry x="1766" y="536.5" width="120" height="40" as="geometry" />
        </mxCell>
        <mxCell id="1439" value="TRANSPORTE" style="rounded=1;fillColor=#64BBE2;strokeColor=none;strokeWidth=3;shadow=0;html=1;fontColor=#FFFFFF;" parent="1" vertex="1">
          <mxGeometry x="1821" y="640" width="120" height="40" as="geometry" />
        </mxCell>
        <mxCell id="1440" value="RED" style="rounded=1;fillColor=#f8cecc;strokeColor=#b85450;strokeWidth=3;shadow=0;html=1;" parent="1" vertex="1">
          <mxGeometry x="1821" y="750" width="120" height="40" as="geometry" />
        </mxCell>
        <mxCell id="1441" value="FISICA" style="rounded=1;fillColor=#64BBE2;strokeColor=none;strokeWidth=3;shadow=0;html=1;fontColor=#FFFFFF;" parent="1" vertex="1">
          <mxGeometry x="1620" y="931.5" width="120" height="40" as="geometry" />
        </mxCell>
        <mxCell id="1442" value="ENLACE DE DATOS" style="rounded=1;fillColor=#64BBE2;strokeColor=none;strokeWidth=3;shadow=0;html=1;fontColor=#FFFFFF;" parent="1" vertex="1">
          <mxGeometry x="1760" y="851.5" width="120" height="40" as="geometry" />
        </mxCell>
        <mxCell id="1444" value="SE REQUIERE PARA MOVER LOS BITS DE LOS DATOS" style="rounded=1;fillColor=#64BBE2;strokeColor=none;strokeWidth=3;shadow=0;html=1;fontColor=#FFFFFF;" parent="1" vertex="1">
          <mxGeometry x="1920" y="931.5" width="339" height="40" as="geometry" />
        </mxCell>
        <mxCell id="1447" value="" style="edgeStyle=none;endArrow=none;strokeWidth=3;strokeColor=#64BBE2;html=1;exitX=0;exitY=0;exitDx=0;exitDy=0;" parent="1" source="1353" target="1436" edge="1">
          <mxGeometry x="-24" y="196.5" width="100" height="100" as="geometry">
            <mxPoint x="-304" y="200" as="sourcePoint" />
            <mxPoint x="-204" y="100" as="targetPoint" />
          </mxGeometry>
        </mxCell>
        <mxCell id="1448" value="" style="edgeStyle=none;endArrow=none;strokeWidth=3;strokeColor=#64BBE2;html=1;" parent="1" source="1353" target="1437" edge="1">
          <mxGeometry x="-24" y="196.5" width="100" height="100" as="geometry">
            <mxPoint x="-304" y="200" as="sourcePoint" />
            <mxPoint x="-204" y="100" as="targetPoint" />
          </mxGeometry>
        </mxCell>
        <mxCell id="1449" value="" style="edgeStyle=none;endArrow=none;strokeWidth=3;strokeColor=#64BBE2;html=1;" parent="1" source="1353" target="1438" edge="1">
          <mxGeometry x="-24" y="196.5" width="100" height="100" as="geometry">
            <mxPoint x="-304" y="200" as="sourcePoint" />
            <mxPoint x="-204" y="100" as="targetPoint" />
          </mxGeometry>
        </mxCell>
        <mxCell id="1450" value="" style="edgeStyle=none;endArrow=none;strokeWidth=3;strokeColor=#64BBE2;html=1;" parent="1" source="1353" target="1439" edge="1">
          <mxGeometry x="-24" y="196.5" width="100" height="100" as="geometry">
            <mxPoint x="-304" y="200" as="sourcePoint" />
            <mxPoint x="-204" y="100" as="targetPoint" />
          </mxGeometry>
        </mxCell>
        <mxCell id="1451" value="" style="edgeStyle=none;endArrow=none;strokeWidth=3;strokeColor=#64BBE2;html=1;" parent="1" source="1353" target="1440" edge="1">
          <mxGeometry x="-24" y="196.5" width="100" height="100" as="geometry">
            <mxPoint x="-304" y="200" as="sourcePoint" />
            <mxPoint x="-204" y="100" as="targetPoint" />
          </mxGeometry>
        </mxCell>
        <mxCell id="1452" value="" style="edgeStyle=none;endArrow=none;strokeWidth=3;strokeColor=#64BBE2;html=1;" parent="1" source="1353" target="1442" edge="1">
          <mxGeometry x="-24" y="196.5" width="100" height="100" as="geometry">
            <mxPoint x="-304" y="200" as="sourcePoint" />
            <mxPoint x="-204" y="100" as="targetPoint" />
          </mxGeometry>
        </mxCell>
        <mxCell id="1453" value="" style="edgeStyle=none;endArrow=none;strokeWidth=3;strokeColor=#64BBE2;html=1;" parent="1" source="1353" target="1441" edge="1">
          <mxGeometry x="-24" y="196.5" width="100" height="100" as="geometry">
            <mxPoint x="-304" y="200" as="sourcePoint" />
            <mxPoint x="-204" y="100" as="targetPoint" />
          </mxGeometry>
        </mxCell>
        <mxCell id="1455" value="" style="edgeStyle=none;endArrow=none;strokeWidth=3;strokeColor=#64BBE2;html=1;exitX=1;exitY=0.5;exitDx=0;exitDy=0;" parent="1" source="1441" target="1444" edge="1">
          <mxGeometry x="-24" y="196.5" width="100" height="100" as="geometry">
            <mxPoint x="-304" y="200" as="sourcePoint" />
            <mxPoint x="-204" y="100" as="targetPoint" />
          </mxGeometry>
        </mxCell>
        <mxCell id="1457" value="SE DIO A LA FUCION DE &lt;br&gt;EL MODELO OSI" style="rounded=1;fillColor=#e1d5e7;strokeColor=#9673a6;strokeWidth=3;shadow=0;html=1;" parent="1" vertex="1">
          <mxGeometry x="1338" y="1068.5" width="179" height="60" as="geometry" />
        </mxCell>
        <mxCell id="1458" value="TRANSPOTE" style="rounded=1;fillColor=#a29dc5;strokeColor=none;strokeWidth=3;shadow=0;html=1;fontColor=#FFFFFF;" parent="1" vertex="1">
          <mxGeometry x="1713.5" y="1340" width="120" height="40" as="geometry" />
        </mxCell>
        <mxCell id="1459" value="PROTOCOLOS" style="rounded=1;fillColor=#a29dc5;strokeColor=none;strokeWidth=3;shadow=0;html=1;fontColor=#FFFFFF;" parent="1" vertex="1">
          <mxGeometry x="1573.5" y="1177.5" width="120" height="40" as="geometry" />
        </mxCell>
        <mxCell id="1460" value="REDES" style="rounded=1;fillColor=#a29dc5;strokeColor=none;strokeWidth=3;shadow=0;html=1;fontColor=#FFFFFF;" parent="1" vertex="1">
          <mxGeometry x="1559.5" y="1437.5" width="120" height="40" as="geometry" />
        </mxCell>
        <mxCell id="1461" value="APLICACIÃ“N" style="rounded=1;fillColor=#a29dc5;strokeColor=none;strokeWidth=3;shadow=0;html=1;fontColor=#FFFFFF;" parent="1" vertex="1">
          <mxGeometry x="1781.5" y="1177.5" width="120" height="40" as="geometry" />
        </mxCell>
        <mxCell id="1462" value="INTERNET" style="rounded=1;fillColor=#a29dc5;strokeColor=none;strokeWidth=3;shadow=0;html=1;fontColor=#FFFFFF;" parent="1" vertex="1">
          <mxGeometry x="1713.5" y="1437.5" width="120" height="40" as="geometry" />
        </mxCell>
        <mxCell id="1463" value="" style="edgeStyle=none;endArrow=none;strokeWidth=3;strokeColor=#A29DC5;html=1;" parent="1" source="1354" target="1460" edge="1">
          <mxGeometry x="251" y="-103.5" width="100" height="100" as="geometry">
            <mxPoint x="-75.5" y="45" as="sourcePoint" />
            <mxPoint x="24.5" y="-55" as="targetPoint" />
          </mxGeometry>
        </mxCell>
        <mxCell id="1464" value="" style="edgeStyle=none;endArrow=none;strokeWidth=3;strokeColor=#A29DC5;html=1;exitX=1;exitY=0.5;exitDx=0;exitDy=0;jumpStyle=sharp;" parent="1" source="1459" target="1461" edge="1">
          <mxGeometry x="251" y="-103.5" width="100" height="100" as="geometry">
            <mxPoint x="-75.5" y="45" as="sourcePoint" />
            <mxPoint x="24.5" y="-55" as="targetPoint" />
          </mxGeometry>
        </mxCell>
        <mxCell id="1465" value="" style="edgeStyle=none;endArrow=none;strokeWidth=3;strokeColor=#A29DC5;html=1;exitX=0.617;exitY=0.025;exitDx=0;exitDy=0;exitPerimeter=0;" parent="1" source="1460" target="1458" edge="1">
          <mxGeometry x="251" y="-103.5" width="100" height="100" as="geometry">
            <mxPoint x="-75.5" y="45" as="sourcePoint" />
            <mxPoint x="24.5" y="-55" as="targetPoint" />
            <Array as="points">
              <mxPoint x="1633.5" y="1358.5" />
            </Array>
          </mxGeometry>
        </mxCell>
        <mxCell id="1466" value="" style="edgeStyle=none;endArrow=none;strokeWidth=3;strokeColor=#A29DC5;html=1;exitX=1;exitY=0.5;exitDx=0;exitDy=0;" parent="1" source="1460" target="1462" edge="1">
          <mxGeometry x="251" y="-103.5" width="100" height="100" as="geometry">
            <mxPoint x="-75.5" y="45" as="sourcePoint" />
            <mxPoint x="24.5" y="-55" as="targetPoint" />
            <Array as="points" />
          </mxGeometry>
        </mxCell>
        <mxCell id="1467" value="" style="edgeStyle=none;endArrow=none;strokeWidth=3;strokeColor=#A29DC5;html=1;exitX=0.5;exitY=0;exitDx=0;exitDy=0;" parent="1" source="1354" target="1457" edge="1">
          <mxGeometry x="251" y="-103.5" width="100" height="100" as="geometry">
            <mxPoint x="1413.5" y="1238.5" as="sourcePoint" />
            <mxPoint x="24.5" y="-55" as="targetPoint" />
          </mxGeometry>
        </mxCell>
        <mxCell id="1468" value="IP&lt;br&gt;RIP&lt;br&gt;IGP&lt;br&gt;IPX&lt;br&gt;SPX" style="rounded=1;fillColor=#f5af58;strokeColor=none;strokeWidth=3;shadow=0;html=1;fontColor=#FFFFFF;" parent="1" vertex="1">
          <mxGeometry x="340" y="1391.5" width="120" height="70" as="geometry" />
        </mxCell>
        <mxCell id="1469" value="UDP&lt;br&gt;TCP" style="rounded=1;fillColor=#f5af58;strokeColor=none;strokeWidth=3;shadow=0;html=1;fontColor=#FFFFFF;" parent="1" vertex="1">
          <mxGeometry x="330" y="1303" width="120" height="40" as="geometry" />
        </mxCell>
        <mxCell id="1470" value="PRESENTACIÃ“N" style="rounded=1;fillColor=#f5af58;strokeColor=none;strokeWidth=3;shadow=0;html=1;fontColor=#FFFFFF;" parent="1" vertex="1">
          <mxGeometry x="594.5" y="1131.5" width="120" height="40" as="geometry" />
        </mxCell>
        <mxCell id="1471" value="AFP&lt;br&gt;NFS" style="rounded=1;fillColor=#f5af58;strokeColor=none;strokeWidth=3;shadow=0;html=1;fontColor=#FFFFFF;" parent="1" vertex="1">
          <mxGeometry x="330" y="1131.5" width="120" height="40" as="geometry" />
        </mxCell>
        <mxCell id="1472" value="CAPA DE RED" style="rounded=1;fillColor=#f5af58;strokeColor=none;strokeWidth=3;shadow=0;html=1;fontColor=#FFFFFF;" parent="1" vertex="1">
          <mxGeometry x="558.5" y="1411.5" width="120" height="40" as="geometry" />
        </mxCell>
        <mxCell id="1473" value="TRANSPORTE DE DATOS" style="rounded=1;fillColor=#f5af58;strokeColor=none;strokeWidth=3;shadow=0;html=1;fontColor=#FFFFFF;" parent="1" vertex="1">
          <mxGeometry x="530" y="1303" width="160" height="40" as="geometry" />
        </mxCell>
        <mxCell id="1474" value="NetBIOS&lt;br&gt;ISNS&lt;br&gt;FTP&lt;br&gt;SAP" style="rounded=1;fillColor=#f5af58;strokeColor=none;strokeWidth=3;shadow=0;html=1;fontColor=#FFFFFF;" parent="1" vertex="1">
          <mxGeometry x="320" y="1211.5" width="120" height="60" as="geometry" />
        </mxCell>
        <mxCell id="1475" value="HTPPS&lt;br&gt;FTP&lt;br&gt;SMTP&lt;br&gt;POP&lt;br&gt;SSH&lt;br&gt;&lt;font style=&quot;font-size: 12px;&quot;&gt;&lt;u style=&quot;&quot;&gt;SNMP&lt;br&gt;DNS&lt;/u&gt;&lt;/font&gt;" style="rounded=1;fillColor=#f5af58;strokeColor=none;strokeWidth=3;shadow=0;html=1;fontColor=#FFFFFF;" parent="1" vertex="1">
          <mxGeometry x="410" y="981.5" width="110" height="120" as="geometry" />
        </mxCell>
        <mxCell id="1476" value="SESIÃ“N" style="rounded=1;fillColor=#f5af58;strokeColor=none;strokeWidth=3;shadow=0;html=1;fontColor=#FFFFFF;" parent="1" vertex="1">
          <mxGeometry x="540" y="1223" width="120" height="40" as="geometry" />
        </mxCell>
        <mxCell id="1477" value="APLICACIÃ“N" style="rounded=1;fillColor=#f5af58;strokeColor=none;strokeWidth=3;shadow=0;html=1;fontColor=#FFFFFF;" parent="1" vertex="1">
          <mxGeometry x="720" y="1061.5" width="120" height="40" as="geometry" />
        </mxCell>
        <mxCell id="1478" value="ENLASE DE DATOS" style="rounded=1;fillColor=#f5af58;strokeColor=none;strokeWidth=3;shadow=0;html=1;fontColor=#FFFFFF;" parent="1" vertex="1">
          <mxGeometry x="558.5" y="1532.5" width="120" height="40" as="geometry" />
        </mxCell>
        <mxCell id="1479" value="" style="edgeStyle=none;endArrow=none;strokeWidth=3;strokeColor=#F5AF58;html=1;exitX=0.721;exitY=0.973;exitDx=0;exitDy=0;exitPerimeter=0;entryX=1;entryY=0.5;entryDx=0;entryDy=0;" parent="1" source="1355" target="1478" edge="1">
          <mxGeometry x="243.5" y="39" width="100" height="100" as="geometry">
            <mxPoint x="780" y="1441.5" as="sourcePoint" />
            <mxPoint x="940" y="1741.5" as="targetPoint" />
            <Array as="points">
              <mxPoint x="851" y="1551.5" />
            </Array>
          </mxGeometry>
        </mxCell>
        <mxCell id="1480" value="" style="edgeStyle=none;endArrow=none;strokeWidth=3;strokeColor=#F5AF58;html=1;exitX=0;exitY=0.5;exitDx=0;exitDy=0;" parent="1" source="1472" target="1468" edge="1">
          <mxGeometry x="243.5" y="39" width="100" height="100" as="geometry">
            <mxPoint x="-278.01" y="32.539999999999964" as="sourcePoint" />
            <mxPoint x="-178.01" y="-67.45999999999998" as="targetPoint" />
          </mxGeometry>
        </mxCell>
        <mxCell id="1481" value="" style="edgeStyle=none;endArrow=none;strokeWidth=3;strokeColor=#F5AF58;html=1;exitX=0;exitY=0.5;exitDx=0;exitDy=0;" parent="1" source="1473" target="1469" edge="1">
          <mxGeometry x="243.5" y="39" width="100" height="100" as="geometry">
            <mxPoint x="-370" y="32.539999999999964" as="sourcePoint" />
            <mxPoint x="-270" y="-67.45999999999998" as="targetPoint" />
          </mxGeometry>
        </mxCell>
        <mxCell id="1482" value="" style="edgeStyle=none;endArrow=none;strokeWidth=3;strokeColor=#F5AF58;html=1;exitX=0;exitY=0;exitDx=0;exitDy=0;entryX=1;entryY=0.5;entryDx=0;entryDy=0;" parent="1" source="1355" target="1470" edge="1">
          <mxGeometry x="243.5" y="39" width="100" height="100" as="geometry">
            <mxPoint x="-370" y="32.539999999999964" as="sourcePoint" />
            <mxPoint x="-270" y="-67.45999999999998" as="targetPoint" />
            <Array as="points">
              <mxPoint x="770" y="1151.5" />
            </Array>
          </mxGeometry>
        </mxCell>
        <mxCell id="1483" value="" style="edgeStyle=none;endArrow=none;strokeWidth=3;strokeColor=#F5AF58;html=1;exitX=0;exitY=0.5;exitDx=0;exitDy=0;" parent="1" source="1470" target="1471" edge="1">
          <mxGeometry x="243.5" y="39" width="100" height="100" as="geometry">
            <mxPoint x="-370" y="32.539999999999964" as="sourcePoint" />
            <mxPoint x="-270" y="-67.45999999999998" as="targetPoint" />
          </mxGeometry>
        </mxCell>
        <mxCell id="1484" value="" style="edgeStyle=none;endArrow=none;strokeWidth=3;strokeColor=#F5AF58;html=1;exitX=0.5;exitY=1;exitDx=0;exitDy=0;entryX=1;entryY=0.5;entryDx=0;entryDy=0;" parent="1" source="1355" target="1472" edge="1">
          <mxGeometry x="243.5" y="39" width="100" height="100" as="geometry">
            <mxPoint x="632" y="1622.5400000000002" as="sourcePoint" />
            <mxPoint x="-178.01" y="-67.45999999999998" as="targetPoint" />
            <Array as="points">
              <mxPoint x="780" y="1431.5" />
            </Array>
          </mxGeometry>
        </mxCell>
        <mxCell id="1485" value="" style="edgeStyle=none;endArrow=none;strokeWidth=3;strokeColor=#F5AF58;html=1;exitX=0;exitY=1;exitDx=0;exitDy=0;entryX=1;entryY=0.5;entryDx=0;entryDy=0;" parent="1" source="1355" target="1473" edge="1">
          <mxGeometry x="243.5" y="39" width="100" height="100" as="geometry">
            <mxPoint x="-370" y="32.539999999999964" as="sourcePoint" />
            <mxPoint x="-270" y="-67.45999999999998" as="targetPoint" />
            <Array as="points">
              <mxPoint x="730" y="1323.5" />
            </Array>
          </mxGeometry>
        </mxCell>
        <mxCell id="1486" value="" style="edgeStyle=none;endArrow=none;strokeWidth=3;strokeColor=#F5AF58;html=1;exitX=0;exitY=0.5;exitDx=0;exitDy=0;" parent="1" source="1476" target="1474" edge="1">
          <mxGeometry x="243.5" y="39" width="100" height="100" as="geometry">
            <mxPoint x="-370" y="32.539999999999964" as="sourcePoint" />
            <mxPoint x="-270" y="-67.45999999999998" as="targetPoint" />
          </mxGeometry>
        </mxCell>
        <mxCell id="1487" value="" style="edgeStyle=none;endArrow=none;strokeWidth=3;strokeColor=#F5AF58;html=1;exitX=0;exitY=0.5;exitDx=0;exitDy=0;" parent="1" source="1477" target="1475" edge="1">
          <mxGeometry x="243.5" y="39" width="100" height="100" as="geometry">
            <mxPoint x="-370" y="32.539999999999964" as="sourcePoint" />
            <mxPoint x="-270" y="-67.45999999999998" as="targetPoint" />
          </mxGeometry>
        </mxCell>
        <mxCell id="1488" value="" style="edgeStyle=none;endArrow=none;strokeWidth=3;strokeColor=#F5AF58;html=1;exitX=0;exitY=0.5;exitDx=0;exitDy=0;" parent="1" source="1355" target="1476" edge="1">
          <mxGeometry x="243.5" y="39" width="100" height="100" as="geometry">
            <mxPoint x="-370" y="32.539999999999964" as="sourcePoint" />
            <mxPoint x="-270" y="-67.45999999999998" as="targetPoint" />
          </mxGeometry>
        </mxCell>
        <mxCell id="1489" value="" style="edgeStyle=none;endArrow=none;strokeWidth=3;strokeColor=#F5AF58;html=1;" parent="1" source="1355" target="1477" edge="1">
          <mxGeometry x="243.5" y="39" width="100" height="100" as="geometry">
            <mxPoint x="-370" y="32.539999999999964" as="sourcePoint" />
            <mxPoint x="-270" y="-67.45999999999998" as="targetPoint" />
          </mxGeometry>
        </mxCell>
        <mxCell id="1515" value="&lt;font style=&quot;vertical-align: inherit;&quot;&gt;&lt;font style=&quot;vertical-align: inherit;&quot;&gt;MODELO OSI&lt;/font&gt;&lt;/font&gt;" style="ellipse;whiteSpace=wrap;html=1;shadow=0;fontFamily=Helvetica;fontSize=30;fontColor=#2F5B7C;align=center;strokeColor=#2F5B7C;strokeWidth=6;fillColor=#FFFFFF;fontStyle=1;gradientColor=none;" parent="1" vertex="1">
          <mxGeometry x="961" y="676.5" width="270" height="270" as="geometry" />
        </mxCell>
        <mxCell id="1541" value="" style="edgeStyle=none;endArrow=none;strokeWidth=3;strokeColor=#A29DC5;html=1;" parent="1" source="1354" target="1459" edge="1">
          <mxGeometry x="-1174" y="-408.5" width="100" height="100" as="geometry">
            <mxPoint x="-1500.5" y="-260" as="sourcePoint" />
            <mxPoint x="-1400.5" y="-360" as="targetPoint" />
          </mxGeometry>
        </mxCell>
        <mxCell id="1542" style="edgeStyle=none;rounded=0;html=1;exitX=0.5;exitY=1;endArrow=none;endFill=0;jettySize=auto;orthogonalLoop=1;strokeColor=#736CA8;strokeWidth=2;fillColor=#64bbe2;fontSize=20;fontColor=#23445D;" parent="1" edge="1">
          <mxGeometry relative="1" as="geometry">
            <mxPoint x="5" y="750.5" as="sourcePoint" />
            <mxPoint x="5" y="750.5" as="targetPoint" />
          </mxGeometry>
        </mxCell>
        <mxCell id="YsowHMSdNm_ZGj2GAkvc-1547" value="&lt;font style=&quot;vertical-align: inherit;&quot;&gt;&lt;font style=&quot;vertical-align: inherit;&quot;&gt;ACTUAN COMO:&lt;/font&gt;&lt;/font&gt;" style="rounded=1;whiteSpace=wrap;html=1;fontSize=20;fillColor=#1699D3;strokeColor=none;fontColor=#FFFFFF;shadow=0;strokeWidth=3;" vertex="1" parent="1">
          <mxGeometry x="582" y="623" width="120" height="60" as="geometry" />
        </mxCell>
        <mxCell id="YsowHMSdNm_ZGj2GAkvc-1553" value="&lt;font style=&quot;vertical-align: inherit;&quot;&gt;&lt;font style=&quot;vertical-align: inherit;&quot;&gt;&lt;font style=&quot;vertical-align: inherit;&quot;&gt;&lt;font style=&quot;vertical-align: inherit;&quot;&gt;EMISOR&lt;/font&gt;&lt;/font&gt;&lt;/font&gt;&lt;/font&gt;" style="whiteSpace=wrap;html=1;fontSize=20;fillColor=#1699D3;strokeColor=none;fontColor=#FFFFFF;rounded=1;shadow=0;strokeWidth=3;" vertex="1" parent="1">
          <mxGeometry x="320" y="573" width="120" height="60" as="geometry" />
        </mxCell>
        <mxCell id="YsowHMSdNm_ZGj2GAkvc-1557" value="" style="edgeStyle=none;endArrow=none;strokeWidth=3;strokeColor=#64BBE2;html=1;entryX=0.5;entryY=0;entryDx=0;entryDy=0;exitX=0.5;exitY=1;exitDx=0;exitDy=0;" edge="1" parent="1" source="1350" target="YsowHMSdNm_ZGj2GAkvc-1547">
          <mxGeometry x="-221.5" y="56.5" width="100" height="100" as="geometry">
            <mxPoint x="660" y="501.5" as="sourcePoint" />
            <mxPoint x="660" y="321.5" as="targetPoint" />
          </mxGeometry>
        </mxCell>
        <mxCell id="YsowHMSdNm_ZGj2GAkvc-1558" value="" style="edgeStyle=none;endArrow=none;strokeWidth=3;strokeColor=#64BBE2;html=1;entryX=1;entryY=0.5;entryDx=0;entryDy=0;exitX=0;exitY=0.25;exitDx=0;exitDy=0;" edge="1" parent="1" source="YsowHMSdNm_ZGj2GAkvc-1547" target="YsowHMSdNm_ZGj2GAkvc-1553">
          <mxGeometry x="-221.5" y="56.5" width="100" height="100" as="geometry">
            <mxPoint x="659" y="413.5" as="sourcePoint" />
            <mxPoint x="651" y="293.5" as="targetPoint" />
          </mxGeometry>
        </mxCell>
        <mxCell id="YsowHMSdNm_ZGj2GAkvc-1559" value="&lt;font style=&quot;vertical-align: inherit;&quot;&gt;&lt;font style=&quot;vertical-align: inherit;&quot;&gt;&lt;font style=&quot;vertical-align: inherit;&quot;&gt;&lt;font style=&quot;vertical-align: inherit;&quot;&gt;&lt;font style=&quot;vertical-align: inherit;&quot;&gt;&lt;font style=&quot;vertical-align: inherit;&quot;&gt;RECEPTOR&lt;/font&gt;&lt;/font&gt;&lt;/font&gt;&lt;/font&gt;&lt;/font&gt;&lt;/font&gt;" style="whiteSpace=wrap;html=1;fontSize=20;fillColor=#1699D3;strokeColor=none;fontColor=#FFFFFF;rounded=1;shadow=0;strokeWidth=3;" vertex="1" parent="1">
          <mxGeometry x="260" y="701.5" width="120" height="60" as="geometry" />
        </mxCell>
        <mxCell id="YsowHMSdNm_ZGj2GAkvc-1560" value="" style="edgeStyle=none;endArrow=none;strokeWidth=3;strokeColor=#64BBE2;html=1;entryX=1;entryY=0.5;entryDx=0;entryDy=0;exitX=0;exitY=0.75;exitDx=0;exitDy=0;" edge="1" parent="1" source="YsowHMSdNm_ZGj2GAkvc-1547" target="YsowHMSdNm_ZGj2GAkvc-1559">
          <mxGeometry x="-221.5" y="56.5" width="100" height="100" as="geometry">
            <mxPoint x="592" y="648.5" as="sourcePoint" />
            <mxPoint x="500" y="631.5" as="targetPoint" />
          </mxGeometry>
        </mxCell>
        <mxCell id="YsowHMSdNm_ZGj2GAkvc-1567" value="DA LOS MEDIOS PARA TENER MANTENER O &lt;br&gt;ESTABLECER&amp;nbsp; CONEXION MEDIANTE EL &lt;br&gt;DIRECCIONAMIENTO DE RUTA" style="rounded=1;fillColor=#f8cecc;strokeColor=#b85450;strokeWidth=3;shadow=0;html=1;" vertex="1" parent="1">
          <mxGeometry x="1998" y="745" width="340" height="50" as="geometry" />
        </mxCell>
        <mxCell id="YsowHMSdNm_ZGj2GAkvc-1568" value="" style="edgeStyle=none;endArrow=none;strokeWidth=3;strokeColor=#64BBE2;html=1;exitX=1;exitY=0.5;exitDx=0;exitDy=0;entryX=0;entryY=0.5;entryDx=0;entryDy=0;" edge="1" parent="1" source="1436" target="YsowHMSdNm_ZGj2GAkvc-1578">
          <mxGeometry x="-24" y="196.5" width="100" height="100" as="geometry">
            <mxPoint x="1750" y="962" as="sourcePoint" />
            <mxPoint x="1931" y="962" as="targetPoint" />
          </mxGeometry>
        </mxCell>
        <mxCell id="YsowHMSdNm_ZGj2GAkvc-1569" value="" style="edgeStyle=none;endArrow=none;strokeWidth=3;strokeColor=#64BBE2;html=1;exitX=1;exitY=0.5;exitDx=0;exitDy=0;entryX=0;entryY=0.5;entryDx=0;entryDy=0;" edge="1" parent="1" source="1439" target="YsowHMSdNm_ZGj2GAkvc-1575">
          <mxGeometry x="-24" y="196.5" width="100" height="100" as="geometry">
            <mxPoint x="1760" y="972" as="sourcePoint" />
            <mxPoint x="2000" y="660" as="targetPoint" />
          </mxGeometry>
        </mxCell>
        <mxCell id="YsowHMSdNm_ZGj2GAkvc-1570" value="" style="edgeStyle=none;endArrow=none;strokeWidth=3;strokeColor=#64BBE2;html=1;exitX=1;exitY=0.5;exitDx=0;exitDy=0;entryX=0;entryY=0.5;entryDx=0;entryDy=0;" edge="1" parent="1" source="1440" target="YsowHMSdNm_ZGj2GAkvc-1567">
          <mxGeometry x="-24" y="196.5" width="100" height="100" as="geometry">
            <mxPoint x="1770" y="982" as="sourcePoint" />
            <mxPoint x="1951" y="982" as="targetPoint" />
          </mxGeometry>
        </mxCell>
        <mxCell id="YsowHMSdNm_ZGj2GAkvc-1571" value="" style="edgeStyle=none;endArrow=none;strokeWidth=3;strokeColor=#64BBE2;html=1;exitX=1;exitY=0.5;exitDx=0;exitDy=0;entryX=0;entryY=0.25;entryDx=0;entryDy=0;" edge="1" parent="1" source="1438" target="YsowHMSdNm_ZGj2GAkvc-1576">
          <mxGeometry x="-24" y="196.5" width="100" height="100" as="geometry">
            <mxPoint x="1780" y="992" as="sourcePoint" />
            <mxPoint x="1961" y="992" as="targetPoint" />
          </mxGeometry>
        </mxCell>
        <mxCell id="YsowHMSdNm_ZGj2GAkvc-1572" value="" style="edgeStyle=none;endArrow=none;strokeWidth=3;strokeColor=#64BBE2;html=1;exitX=1;exitY=0.25;exitDx=0;exitDy=0;entryX=0;entryY=0.5;entryDx=0;entryDy=0;" edge="1" parent="1" source="1437" target="YsowHMSdNm_ZGj2GAkvc-1577">
          <mxGeometry x="-24" y="196.5" width="100" height="100" as="geometry">
            <mxPoint x="1790" y="1002" as="sourcePoint" />
            <mxPoint x="1971" y="1002" as="targetPoint" />
          </mxGeometry>
        </mxCell>
        <mxCell id="YsowHMSdNm_ZGj2GAkvc-1573" value="" style="edgeStyle=none;endArrow=none;strokeWidth=3;strokeColor=#64BBE2;html=1;exitX=1;exitY=0.25;exitDx=0;exitDy=0;entryX=0;entryY=0.5;entryDx=0;entryDy=0;" edge="1" parent="1" source="1442" target="YsowHMSdNm_ZGj2GAkvc-1574">
          <mxGeometry x="-24" y="196.5" width="100" height="100" as="geometry">
            <mxPoint x="1886" y="860" as="sourcePoint" />
            <mxPoint x="2067" y="860" as="targetPoint" />
          </mxGeometry>
        </mxCell>
        <mxCell id="YsowHMSdNm_ZGj2GAkvc-1574" value="REALIZA LA VERIFICACIÃ“N DE ERRORES&lt;br&gt;&amp;nbsp;Y DA ACCESO A LOS MEDIOS" style="rounded=1;fillColor=#64BBE2;strokeColor=none;strokeWidth=3;shadow=0;html=1;fontColor=#FFFFFF;" vertex="1" parent="1">
          <mxGeometry x="1950" y="840" width="300" height="40" as="geometry" />
        </mxCell>
        <mxCell id="YsowHMSdNm_ZGj2GAkvc-1575" value="COMUNICACIÃ“N DE EXTREMO A EXTREMO" style="rounded=1;fillColor=#64BBE2;strokeColor=none;strokeWidth=3;shadow=0;html=1;fontColor=#FFFFFF;" vertex="1" parent="1">
          <mxGeometry x="1990" y="640" width="300" height="40" as="geometry" />
        </mxCell>
        <mxCell id="YsowHMSdNm_ZGj2GAkvc-1576" value="COMUNICACION ENTRE HOSTS" style="rounded=1;fillColor=#64BBE2;strokeColor=none;strokeWidth=3;shadow=0;html=1;fontColor=#FFFFFF;" vertex="1" parent="1">
          <mxGeometry x="1970" y="550" width="240" height="40" as="geometry" />
        </mxCell>
        <mxCell id="YsowHMSdNm_ZGj2GAkvc-1577" value="REPRESENTACION DE DATOS" style="rounded=1;fillColor=#64BBE2;strokeColor=none;strokeWidth=3;shadow=0;html=1;fontColor=#FFFFFF;" vertex="1" parent="1">
          <mxGeometry x="1831" y="440" width="239" height="40" as="geometry" />
        </mxCell>
        <mxCell id="YsowHMSdNm_ZGj2GAkvc-1578" value="PROCESOS DE RED A APLICACION" style="rounded=1;fillColor=#64BBE2;strokeColor=none;strokeWidth=3;shadow=0;html=1;fontColor=#FFFFFF;" vertex="1" parent="1">
          <mxGeometry x="1740" y="340" width="270" height="40" as="geometry" />
        </mxCell>
        <mxCell id="YsowHMSdNm_ZGj2GAkvc-1580" value="SESIÃ“N" style="rounded=1;fillColor=#a29dc5;strokeColor=none;strokeWidth=3;shadow=0;html=1;fontColor=#FFFFFF;" vertex="1" parent="1">
          <mxGeometry x="2078.5" y="1202.5" width="120" height="40" as="geometry" />
        </mxCell>
        <mxCell id="YsowHMSdNm_ZGj2GAkvc-1581" value="PRESENTACION" style="rounded=1;fillColor=#A29DC5;strokeColor=none;strokeWidth=3;shadow=0;html=1;fontColor=#FFFFFF;" vertex="1" parent="1">
          <mxGeometry x="2073.5" y="1118.5" width="130" height="40" as="geometry" />
        </mxCell>
        <mxCell id="YsowHMSdNm_ZGj2GAkvc-1582" value="ACCESO DE RED" style="rounded=1;fillColor=#a29dc5;strokeColor=none;strokeWidth=3;shadow=0;html=1;fontColor=#FFFFFF;" vertex="1" parent="1">
          <mxGeometry x="1723.5" y="1537.5" width="120" height="40" as="geometry" />
        </mxCell>
        <mxCell id="YsowHMSdNm_ZGj2GAkvc-1584" value="" style="edgeStyle=none;endArrow=none;strokeWidth=3;strokeColor=#A29DC5;html=1;exitX=0.592;exitY=1;exitDx=0;exitDy=0;exitPerimeter=0;entryX=0;entryY=0.5;entryDx=0;entryDy=0;" edge="1" parent="1" source="1460" target="YsowHMSdNm_ZGj2GAkvc-1582">
          <mxGeometry x="251" y="-103.5" width="100" height="100" as="geometry">
            <mxPoint x="1689.5" y="1467.5" as="sourcePoint" />
            <mxPoint x="1723.5" y="1467.5" as="targetPoint" />
            <Array as="points">
              <mxPoint x="1633.5" y="1558.5" />
            </Array>
          </mxGeometry>
        </mxCell>
        <mxCell id="YsowHMSdNm_ZGj2GAkvc-1588" value="" style="endArrow=classic;html=1;rounded=0;entryX=0;entryY=0.5;entryDx=0;entryDy=0;shape=link;width=0.43478260869565233;strokeColor=#A29DC5;strokeWidth=2;" edge="1" parent="1" target="YsowHMSdNm_ZGj2GAkvc-1581">
          <mxGeometry relative="1" as="geometry">
            <mxPoint x="1903.5" y="1197.5" as="sourcePoint" />
            <mxPoint x="2053.5" y="1198.5" as="targetPoint" />
            <Array as="points">
              <mxPoint x="2013.5" y="1197.5" />
            </Array>
          </mxGeometry>
        </mxCell>
        <mxCell id="YsowHMSdNm_ZGj2GAkvc-1590" value="JUNTO" style="edgeLabel;html=1;align=center;verticalAlign=middle;resizable=0;points=[];" vertex="1" connectable="0" parent="YsowHMSdNm_ZGj2GAkvc-1588">
          <mxGeometry x="0.0591" y="-2" relative="1" as="geometry">
            <mxPoint x="-43" y="-11" as="offset" />
          </mxGeometry>
        </mxCell>
        <mxCell id="YsowHMSdNm_ZGj2GAkvc-1591" value="" style="endArrow=none;html=1;rounded=0;entryX=0;entryY=0.5;entryDx=0;entryDy=0;strokeColor=#A29DC5;strokeWidth=3;" edge="1" parent="1" target="YsowHMSdNm_ZGj2GAkvc-1580">
          <mxGeometry width="50" height="50" relative="1" as="geometry">
            <mxPoint x="2013.5" y="1198.5" as="sourcePoint" />
            <mxPoint x="2073.5" y="1258.5" as="targetPoint" />
          </mxGeometry>
        </mxCell>
        <mxCell id="YsowHMSdNm_ZGj2GAkvc-1602" style="edgeStyle=orthogonalEdgeStyle;rounded=0;orthogonalLoop=1;jettySize=auto;html=1;exitX=0.5;exitY=1;exitDx=0;exitDy=0;" edge="1" parent="1" source="1477" target="1477">
          <mxGeometry relative="1" as="geometry" />
        </mxCell>
        <mxCell id="YsowHMSdNm_ZGj2GAkvc-1611" value="" style="edgeStyle=none;endArrow=none;strokeWidth=3;strokeColor=#F5AF58;html=1;exitX=0;exitY=0.5;exitDx=0;exitDy=0;" edge="1" parent="1" source="1478">
          <mxGeometry x="243.5" y="39" width="100" height="100" as="geometry">
            <mxPoint x="558.5" y="1544.5" as="sourcePoint" />
            <mxPoint x="470" y="1551.5" as="targetPoint" />
          </mxGeometry>
        </mxCell>
        <mxCell id="YsowHMSdNm_ZGj2GAkvc-1612" value="ETHERNET (CSMA/CD)&lt;br&gt;FDDI (100Mbits/s)&lt;br&gt;PPP&lt;br&gt;ARP" style="rounded=1;fillColor=#f5af58;strokeColor=none;strokeWidth=3;shadow=0;html=1;fontColor=#FFFFFF;" vertex="1" parent="1">
          <mxGeometry x="320" y="1532.5" width="150" height="59" as="geometry" />
        </mxCell>
        <mxCell id="YsowHMSdNm_ZGj2GAkvc-1613" value="" style="shape=image;verticalLabelPosition=bottom;labelBackgroundColor=default;verticalAlign=top;aspect=fixed;imageAspect=0;image=https://1.bp.blogspot.com/-xP92r9XBRyM/TcNyeNuPUzI/AAAAAAAAAEI/BskdrrC6lvo/s280/CAPA+6.gif;" vertex="1" parent="1">
          <mxGeometry x="2450" y="380" width="967" height="967" as="geometry" />
        </mxCell>
      </root>
    </mxGraphModel>
  </diagram>
</mxfile>
